Fly_normalized_Motion_pl09
version=1
nRows=8
nColumns=43
inDegrees=yes
endheader
time		pelvis_tilt		pelvis_list		pelvis_rotation		pelvis_tx		pelvis_ty		pelvis_tz		hip_flexion_r		hip_adduction_r		hip_rotation_r		knee_angle_r		ankle_angle_r		subtalar_angle_r		mtp_angle_r		hip_flexion_l		hip_adduction_l		hip_rotation_l		knee_angle_l		ankle_angle_l		subtalar_angle_l		mtp_angle_l		lumbar_extension		lumbar_bending		lumbar_rotation		neck_flexion		neck_lateral_bending		neck_rotation		arm_flex_r		arm_add_r		arm_rot_r		elbow_flex_r		pro_sup_r		wrist_flex_r		wrist_dev_r		hand_finger_flex_r		arm_flex_l		arm_add_l		arm_rot_l		elbow_flex_l		pro_sup_l		wrist_flex_l		wrist_dev_l		hand_finger_flex_l		
0.982348		-2.909891		-5.540024		86.985901		-0.011384		1.875191		1.312191		58.483230		-6.795981		3.023896		-98.248462		-15.684124		-19.609579		-1.712768		56.001587		-0.277784		-7.250630		-94.016051		-24.369062		-6.406630		7.289153		-55.969512		-4.728691		1.267131		21.232883		-0.651581		-3.722220		116.223770		-17.533893		44.986790		48.479274		85.292988		-30.254764		-2.752829		26.978099		108.915306		-10.190929		22.945250		56.415962		116.725000		-24.910420		11.731088		69.747657		
0.986742		-2.893446		-5.161667		86.884578		-0.011276		1.871734		1.304844		58.725861		-6.698565		2.791204		-97.203592		-15.910760		-19.504137		-1.830805		55.803773		-0.277624		-7.448461		-92.258313		-24.476912		-5.644128		7.787576		-56.335130		-4.808056		1.218819		20.971946		-0.586553		-3.652714		114.738591		-18.086371		45.619715		48.230358		85.680349		-30.143914		-2.520726		27.210272		107.423130		-10.869034		23.229809		56.193150		117.066489		-24.669857		11.812994		69.978628		
0.991136		-3.095130		-4.593610		86.636126		-0.010759		1.868580		1.297502		58.804945		-6.549459		2.875228		-96.112651		-16.285363		-19.449828		-2.053163		55.235188		-0.281276		-7.759852		-90.317717		-24.187538		-3.496608		9.841685		-56.961703		-5.155611		0.955408		20.970430		-0.597913		-3.411350		113.340011		-18.475890		46.289426		47.770513		87.203886		-30.300821		-1.914963		27.900690		106.029383		-11.545603		23.321434		55.907202		118.363808		-24.147356		11.964534		70.681539		
0.995530		-3.167705		-4.010452		86.449781		-0.010261		1.865349		1.289937		58.733912		-6.346822		2.834577		-94.909389		-16.524852		-19.059994		-1.958193		54.582634		-0.318953		-8.039834		-88.286053		-24.714066		-2.950906		15.438696		-57.568914		-5.422691		0.821723		20.776643		-0.463173		-3.349548		111.494102		-18.909870		46.064410		47.514705		89.739483		-30.443151		-1.194942		29.988876		104.492001		-11.979430		23.052292		55.503496		120.184032		-23.529346		12.189944		72.017171		
0.999924		-3.178808		-3.711716		86.412866		-0.010154		1.861364		1.282701		58.913956		-6.271204		2.568990		-93.614178		-16.726984		-18.893172		-1.965465		54.300552		-0.298541		-8.245935		-86.344619		-24.644982		-2.622091		15.637137		-57.859021		-5.474953		0.674400		20.650042		-0.443088		-3.268864		109.938376		-19.520653		46.981374		47.143662		89.913875		-30.288101		-1.044363		30.084530		102.965934		-12.770191		23.464654		55.141018		120.271667		-23.452416		12.241317		72.059596		
1.004318		-3.426851		-2.917197		86.198085		-0.009833		1.858117		1.275022		58.581440		-6.208670		2.677535		-92.295555		-17.151725		-18.482987		-1.843034		53.269803		-0.199449		-8.683055		-84.236164		-24.240392		-1.726114		16.403288		-58.673488		-5.810188		0.307054		20.473133		-0.482488		-3.019337		108.489162		-20.129192		48.350729		46.719933		90.693017		-30.488010		-0.869507		30.178261		101.491569		-13.738026		24.051544		54.799069		120.891544		-23.507013		12.343033		72.165114		
1.008712		-3.469535		-2.257561		86.088672		-0.009518		1.854295		1.267054		58.267486		-6.091314		2.528847		-90.916734		-17.537631		-17.998141		-1.717139		52.396324		-0.188757		-8.939261		-82.238694		-24.020332		-1.623805		16.851246		-59.253817		-5.994083		0.125830		19.911207		-0.363654		-2.921011		106.664288		-20.986456		49.363426		46.670942		91.144335		-30.475380		-0.777181		30.364934		99.791898		-14.665159		24.590199		54.603029		121.423220		-23.425556		12.504161		72.362416		
1.013106		-3.583124		-1.437479		85.922746		-0.009146		1.850968		1.259193		57.680153		-5.995401		2.460081		-89.366965		-17.828513		-17.427132		-1.368593		51.210785		-0.147725		-9.308544		-80.059636		-23.741101		-1.762166		17.611790		-60.101121		-6.278973		-0.122781		19.727289		-0.241307		-2.790471		105.021144		-21.857315		50.546553		46.546698		91.754447		-30.539019		-0.577002		30.676722		98.267460		-15.539884		25.108303		54.254303		122.388638		-23.274628		12.810120		72.705826		
